<svg xmlns="http://www.w3.org/2000/svg" width="32.925" height="36.813" viewBox="0 0 32.925 36.813">
  <g id="dool" transform="translate(-270.541 -830.089)">
    <path id="Union_4" data-name="Union 4" d="M-1390.085,34.239V24.125a2.56,2.56,0,0,1,2.52-2.6,2.554,2.554,0,0,1,2.49,2.6V34.239a2.553,2.553,0,0,1-2.52,2.575A2.548,2.548,0,0,1-1390.085,34.239Zm-13.849,0V2.605A2.553,2.553,0,0,1-1401.445,0a2.559,2.559,0,0,1,2.52,2.605V34.239a2.553,2.553,0,0,1-2.52,2.575A2.547,2.547,0,0,1-1403.934,34.239Zm-14.067,0V12.826a2.555,2.555,0,0,1,2.493-2.605,2.558,2.558,0,0,1,2.517,2.605V34.239a2.551,2.551,0,0,1-2.517,2.575A2.548,2.548,0,0,1-1418,34.239Z" transform="translate(1688.542 830.089)" fill="#282622"/>
  </g>
</svg>
