<svg xmlns="http://www.w3.org/2000/svg" width="22.057" height="23.219" viewBox="0 0 22.057 23.219">
  <path id="home" d="M442.213,244.8v-3.561a1.646,1.646,0,0,1,1.642-1.64h3.338a1.646,1.646,0,0,1,1.652,1.64v3.55a1.43,1.43,0,0,0,1.424,1.424h2.277a4.016,4.016,0,0,0,2.836-1.16,3.956,3.956,0,0,0,1.176-2.813V232.132a2.87,2.87,0,0,0-1.039-2.208l-7.734-6.141a3.618,3.618,0,0,0-4.595.082l-7.567,6.059a2.874,2.874,0,0,0-1.123,2.208v10.1a4,4,0,0,0,4.012,3.983h2.224a1.429,1.429,0,0,0,1.013-.411,1.406,1.406,0,0,0,.421-1Z" transform="translate(-434.5 -223)" fill="#d3be6d"/>
</svg>
