<svg xmlns="http://www.w3.org/2000/svg" width="20" height="20" viewBox="0 0 20 20">
  <g id="menu" transform="translate(-2136 -254)">
    <path id="Path_64" data-name="Path 64" d="M392.076,223h3.385A2.549,2.549,0,0,1,398,225.56v3.415a2.548,2.548,0,0,1-2.539,2.559h-3.385a2.548,2.548,0,0,1-2.539-2.559V225.56A2.549,2.549,0,0,1,392.076,223Z" transform="translate(1758 31)" fill="#282622" opacity="0.4"/>
    <path id="Path_65" data-name="Path 65" d="M380.539,223h3.385a2.549,2.549,0,0,1,2.539,2.56v3.415a2.548,2.548,0,0,1-2.539,2.559h-3.385A2.548,2.548,0,0,1,378,228.975V225.56A2.549,2.549,0,0,1,380.539,223Zm0,11.466h3.385a2.548,2.548,0,0,1,2.539,2.559v3.415a2.55,2.55,0,0,1-2.539,2.56h-3.385A2.55,2.55,0,0,1,378,240.44v-3.415A2.548,2.548,0,0,1,380.539,234.466Zm14.922,0h-3.385a2.548,2.548,0,0,0-2.539,2.559v3.415a2.55,2.55,0,0,0,2.539,2.56h3.385A2.55,2.55,0,0,0,398,240.44v-3.415A2.548,2.548,0,0,0,395.461,234.466Z" transform="translate(1758 31)" fill="#282622" fill-rule="evenodd"/>
  </g>
</svg>
