<svg xmlns="http://www.w3.org/2000/svg" width="71.74" height="50.217" viewBox="0 0 71.74 50.217">
  <g id="smart_ac" data-name="smart ac" transform="translate(-2350.65 -141.76)">
    <path id="Path_70" data-name="Path 70" d="M306.57,110.27h-60.7a5.52,5.52,0,0,0-5.52,5.51v19a5.52,5.52,0,0,0,5.52,5.52h3.57V128.18a1.5,1.5,0,0,1,1.5-1.5h49.94a1.5,1.5,0,0,1,1.5,1.5v12.09h4.19a5.52,5.52,0,0,0,5.52-5.52v-19A5.52,5.52,0,0,0,306.57,110.27Zm-15.7,14.06a.94.94,0,0,1-.94.94h-2.39a.94.94,0,0,1-.94-.94v-1.15a.94.94,0,0,1,.94-.94h2.39a.94.94,0,0,1,.94.94Zm5.29,0a.94.94,0,0,1-.94.94h-2.39a.94.94,0,0,1-.94-.94v-1.15a.94.94,0,0,1,.94-.94h2.39a.94.94,0,0,1,.94.94Z" transform="translate(2110.3 31.49)" fill="#262420"/>
    <path id="Path_71" data-name="Path 71" d="M299.29,134.66v5.61H253v-5.61a6,6,0,0,1,6-5.95h34.42a6,6,0,0,1,5.87,5.95Z" transform="translate(2110.3 31.49)" fill="#beb6a6"/>
    <path id="Path_72" data-name="Path 72" d="M267,143.71l-4.24,6.97,4.24,2.47-4.24,6" transform="translate(2110.3 31.49)" fill="none" stroke="#beb6a6" stroke-miterlimit="10" stroke-width="2"/>
    <path id="Path_73" data-name="Path 73" d="M278.03,144.47l-4.24,6.97,4.24,2.47-4.24,6" transform="translate(2110.3 31.49)" fill="none" stroke="#beb6a6" stroke-miterlimit="10" stroke-width="2"/>
    <path id="Path_74" data-name="Path 74" d="M288.72,143.71l-4.24,6.97,4.24,2.47-4.24,6" transform="translate(2110.3 31.49)" fill="none" stroke="#beb6a6" stroke-miterlimit="10" stroke-width="2"/>
  </g>
</svg>
