<svg xmlns="http://www.w3.org/2000/svg" width="71.542" height="66.46" viewBox="0 0 71.542 66.46">
  <g id="smart_tv" data-name="smart tv" transform="translate(-2214 -269.37)">
    <rect id="Rectangle_36" data-name="Rectangle 36" width="62.12" height="36.12" transform="translate(2214 292.65)" fill="#262420"/>
    <rect id="Rectangle_37" data-name="Rectangle 37" width="43.88" height="3.65" rx="1.82" transform="translate(2221.82 332.18)" fill="#beb6a6"/>
    <circle id="Ellipse_7" data-name="Ellipse 7" cx="1.57" cy="1.57" r="1.57" transform="translate(2265.36 285.18)" fill="#beb6a6"/>
    <path id="Path_75" data-name="Path 75" d="M155.05,246.81v2.53a6.27,6.27,0,0,1,7.83,8.88h3.05a9.76,9.76,0,0,0-2.05-8.53C160.4,245.81,155.28,246.76,155.05,246.81Z" transform="translate(2110.3 31.49)" fill="#beb6a6"/>
    <path id="Path_76" data-name="Path 76" d="M155.12,242.59v-4.71A20.34,20.34,0,0,1,168.71,243a20.67,20.67,0,0,1,6.53,15.35h-4.06c.07-.68.67-7.52-4.71-12.29a14.78,14.78,0,0,0-11.35-3.47Z" transform="translate(2110.3 31.49)" fill="#beb6a6"/>
  </g>
</svg>
