<svg xmlns="http://www.w3.org/2000/svg" width="42" height="111" viewBox="0 0 42 111">
  <g id="tamperore" transform="translate(-371 -295)">
    <g id="Union_2" data-name="Union 2" transform="translate(371 295)" fill="none">
      <path d="M21,111h-.059A21.256,21.256,0,0,1,0,89.5,21.543,21.543,0,0,1,12,70.07V9A9,9,0,0,1,30,9V70.069A21.544,21.544,0,0,1,42,89.5,21.257,21.257,0,0,1,21.058,111Z" stroke="none"/>
      <path d="M 20.99970436096191 109.9996948242188 L 21.05562782287598 109.99951171875 C 23.74710464477539 109.9918823242188 26.35702705383301 109.4458084106445 28.81290435791016 108.37646484375 C 31.1876277923584 107.3424530029297 33.32047271728516 105.8648834228516 35.15224456787109 103.9847717285156 C 36.9858283996582 102.1027908325195 38.42536544799805 99.91230010986328 39.43082809448242 97.47414398193359 C 40.47225952148438 94.94880676269531 41.00030517578125 92.26579284667969 41.00030517578125 89.49960327148438 C 41.00030517578125 85.54314422607422 39.89867401123047 81.70334625244141 37.81452178955078 78.39533996582031 C 35.78605651855469 75.17571258544922 32.93248748779297 72.60757446289062 29.56235122680664 70.96854400634766 L 28.99970436096191 70.69490051269531 L 28.99970436096191 9.000004768371582 C 28.99970436096191 4.588789463043213 25.41091918945312 1.000005125999451 20.99970436096191 1.000005125999451 C 16.5884895324707 1.000005125999451 12.99970436096191 4.588789463043213 12.99970436096191 9.000004768371582 L 12.99970436096191 70.69515991210938 L 12.43707370758057 70.96878814697266 C 9.067104339599609 72.60781860351562 6.213750839233398 75.17591094970703 4.185473918914795 78.39545440673828 C 2.101519823074341 81.70336151123047 0.9999968409538269 85.54311370849609 0.9999968409538269 89.49960327148438 C 0.9999968409538269 92.26577758789062 1.528043031692505 94.94879150390625 2.569458484649658 97.47414398193359 C 3.574904441833496 99.91230010986328 5.014396667480469 102.1027908325195 6.847950458526611 103.9847869873047 C 8.679642677307129 105.8648834228516 10.81241226196289 107.3424682617188 13.18701267242432 108.37646484375 C 15.64275074005127 109.4458236694336 18.25248908996582 109.9918823242188 20.94716644287109 109.9995269775391 L 20.99970436096191 109.9996948242188 M 20.99970436096191 110.9996948242188 C 20.97998237609863 110.9996948242188 20.96061134338379 110.9996337890625 20.94091987609863 110.99951171875 C 9.370858192443848 110.9666976928711 -3.165611815347802e-06 101.3539123535156 -3.165611815347802e-06 89.49960327148438 C -3.165611815347802e-06 80.92333984375 4.905104637145996 73.52006530761719 11.99970436096191 70.06951141357422 L 11.99970436096191 9.000004768371582 C 11.99970436096191 4.029297351837158 16.02899742126465 5.072960448160302e-06 20.99970436096191 5.072960448160302e-06 C 25.97039604187012 5.072960448160302e-06 29.99970436096191 4.029297351837158 29.99970436096191 9.000004768371582 L 29.99970436096191 70.06925201416016 C 37.09462738037109 73.51979064941406 42.00030517578125 80.92333984375 42.00030517578125 89.49960327148438 C 42.00030517578125 101.3539123535156 32.62942886352539 110.9666976928711 21.05845832824707 110.99951171875 C 21.03876686096191 110.9996337890625 21.01942825317383 110.9996948242188 20.99970436096191 110.9996948242188 Z" stroke="none" fill="#fff"/>
    </g>
    <rect id="Rectangle_28" data-name="Rectangle 28" width="5" height="25" rx="2.5" transform="translate(389 343)" fill="#d3be6d"/>
    <path id="Path_57" data-name="Path 57" d="M12.725,10.843c3.988-.3,5.823-4.5,9.906-4.7s6.427,3.9,6.427,3.9A15.559,15.559,0,0,1,30,14.5,14.756,14.756,0,0,1,15,29,14.756,14.756,0,0,1,0,14.5,31.565,31.565,0,0,1,.8,9.98,8.943,8.943,0,0,1,5.979,8.725C8.96,8.941,7.45,11.235,12.725,10.843Z" transform="translate(377 371)" fill="#d3be6d"/>
  </g>
</svg>
